<?xml version="1.0" encoding="utf-8"?>
<!-- Generator: Adobe Illustrator 20.0.0, SVG Export Plug-In . SVG Version: 6.00 Build 0)  -->
<svg version="1.1" id="Layer_1" xmlns="http://www.w3.org/2000/svg" xmlns:xlink="http://www.w3.org/1999/xlink" x="0px" y="0px"
	 viewBox="0 0 443 200" style="enable-background:new 0 0 443 200;" xml:space="preserve">
<style type="text/css">
	.st0{fill:#FFFFFF;}
	.st1{filter:url(#filter-2);}
	.st2{fill:#0600FF;fill-opacity:0.24;}
	.st3{fill:#FF0000;fill-opacity:0.24;}
	.st4{fill:#FF0000;fill-opacity:0.44;}
	.st5{fill:#FF0000;fill-opacity:0.64;}
	.st6{fill:#0600FF;fill-opacity:0.44;}
	.st7{fill:#CBCCCE;}
	.st8{fill:#0600FF;fill-opacity:0.12;}
	.st9{fill:#EEEEEE;}
	.st10{fill:#DCDDDF;}
	.st11{fill:#CC0000;}
</style>
<filter  filterUnits="objectBoundingBox" height="113.0%" id="filter-2" width="105.9%" x="-2.9%" y="-6.5%">
	<feGaussianBlur  in="SourceAlpha" result="shadowBlurInner1" stdDeviation="12.5"></feGaussianBlur>
	<feOffset  dx="0" dy="1" in="shadowBlurInner1" result="shadowOffsetInner1"></feOffset>
	<feComposite  in="shadowOffsetInner1" in2="SourceAlpha" k2="-1" k3="1" operator="arithmetic" result="shadowInnerInner1">
		</feComposite>
	<feColorMatrix  in="shadowInnerInner1" type="matrix" values="0 0 0 0 0.863   0 0 0 0 0.867   0 0 0 0 0.875  0 0 0 1 0">
		</feColorMatrix>
</filter>
<title>Flat Rink</title>
<desc>Created with Sketch.</desc>
<g id="NHL:-Rink">
	<g id="Rink-Toolkit" transform="translate(-136.000000, -334.000000)">
		<g id="Flat-Rink" transform="translate(136.000000, 334.000000)">
			<g id="rink-ice">
				<g id="ice">
					<g>
						<path id="path-1" class="st0" d="M443,44.7C443,20,423,0,398.3,0H44.7C20,0,0,20,0,44.7v110.7C0,180,20,200,44.7,200h353.7
							c24.7,0,44.7-20,44.7-44.7V44.7z"/>
					</g>
					<g class="st1">
						<path d="M443,44.7C443,20,423,0,398.3,0H44.7C20,0,0,20,0,44.7v110.7C0,180,20,200,44.7,200h353.7c24.7,0,44.7-20,44.7-44.7
							V44.7z"/>
					</g>
				</g>
			</g>
			<path id="center-ring" class="st2" d="M222,64.9c-19.3,0-35.1,15.7-35.1,35.1S202.6,135,222,135s35.1-15.7,35.1-35.1
				S241.3,64.9,222,64.9 M222,136c-19.9,0-36.1-16.2-36.1-36.1c0-19.9,16.2-36.1,36.1-36.1c19.9,0,36.1,16.2,36.1,36.1
				C258.1,119.8,241.9,136,222,136"/>
			<g id="ring-top-right" transform="translate(338.000000, 9.000000)">
				<path id="Fill-6" class="st3" d="M36.1,73.8c-18.9,0-34.3-15.4-34.3-34.3S17.2,5.3,36.1,5.3s34.3,15.4,34.3,34.3
					S54.9,73.8,36.1,73.8 M71.2,39.5C71.2,22.5,59,8.3,43,5V0h-1v4.8c-2-0.3-3.9-0.5-6-0.5c-2.1,0-4,0.2-6,0.5V0h-1v5
					C13,8.3,0.8,22.5,0.8,39.5S13,70.8,29,74.1V79h1v-4.7c2,0.3,3.9,0.5,6,0.5c2.1,0,4-0.2,6-0.5V79h1v-4.9
					C59,70.8,71.2,56.6,71.2,39.5"/>
				<polygon id="Fill-8" class="st3" points="29,37 20,37 20,38 30,38 30,31 29,31 				"/>
				<polygon id="Fill-10" class="st3" points="43,31 42,31 42,38 52,38 52,37 43,37 				"/>
				<polygon id="Fill-12" class="st3" points="42,48 43,48 43,42 52,42 52,41 42,41 				"/>
				<polygon id="Fill-14" class="st3" points="20,42 29,42 29,48 30,48 30,41 20,41 				"/>
				<path id="Fill-16" class="st4" d="M36.1,37.3c-1.3,0-2.3,1-2.3,2.3c0,1.3,1,2.3,2.3,2.3c1.3,0,2.3-1,2.3-2.3
					C38.3,38.3,37.3,37.3,36.1,37.3"/>
			</g>
			<g id="ring-bottom-right" transform="translate(338.000000, 112.000000)">
				<path id="Fill-18" class="st3" d="M36.1,73.6c-18.9,0-34.3-15.4-34.3-34.3S17.2,5.1,36.1,5.1s34.3,15.4,34.3,34.3
					S54.9,73.6,36.1,73.6 M71.2,39.3C71.2,22.3,59,8,43,4.8V0h-1v4.6c-2-0.3-3.9-0.5-6-0.5c-2.1,0-4,0.2-6,0.5V0h-1v4.8
					C13,8,0.8,22.3,0.8,39.3S13,70.6,29,73.9V79h1v-4.9c2,0.3,3.9,0.5,6,0.5c2.1,0,4-0.2,6-0.5V79h1v-5.1
					C59,70.6,71.2,56.4,71.2,39.3"/>
				<polygon id="Fill-20" class="st3" points="29,37 20,37 20,38 30,38 30,31 29,31 				"/>
				<polygon id="Fill-22" class="st3" points="43,31 42,31 42,38 52,38 52,37 43,37 				"/>
				<polygon id="Fill-24" class="st3" points="42,48 43,48 43,42 52,42 52,41 42,41 				"/>
				<polygon id="Fill-26" class="st3" points="20,42 29,42 29,48 30,48 30,41 20,41 				"/>
				<path id="Fill-28" class="st4" d="M38.3,39.2c0-1.3-1-2.3-2.3-2.3c-1.3,0-2.3,1-2.3,2.3c0,1.3,1,2.3,2.3,2.3
					C37.3,41.5,38.3,40.5,38.3,39.2"/>
			</g>
			<g id="center-line" transform="translate(221.000000, 0.000000)">
				<polygon id="Fill-30" class="st5" points="0.5,96 1.5,96 1.5,0.5 0.5,0.5 				"/>
				<polygon id="Fill-32" class="st5" points="0.5,199.4 1.5,199.4 1.5,103.9 0.5,103.9 				"/>
			</g>
			<path id="half-circle" class="st3" d="M242.3,199.4h-1c0-10.7-8.7-19.3-19.3-19.3s-19.3,8.7-19.3,19.3h-1
				c0-11.2,9.1-20.3,20.3-20.3S242.3,188.1,242.3,199.4"/>
			<polygon id="line-right" class="st6" points="282.9,199.4 283.9,199.4 283.9,0.5 282.9,0.5 			"/>
			<polygon id="line-left" class="st6" points="160.1,199.4 161.1,199.4 161.1,0.5 160.1,0.5 			"/>
			<path id="goal-lines-right" class="st4" d="M412.4,109c-2.2,0-4.4-1.9-4.4-4.2v-9.7c0-2.2,2.2-4.2,4.4-4.2h8.6v18H412.4z
				 M442.6,132.2l-20.6-8V77.1l20.6-7.9l0-1L422,76V7.4l-1-0.8V90h-8.6c-2.8,0-5.4,2.4-5.4,5.2v9.7c0,2.8,2.6,5.2,5.4,5.2h8.6v83.3
				l1-0.5v-67.5l20.5,7.9L442.6,132.2z"/>
			<path id="center-dot" class="st6" d="M224.3,99.9c0-1.3-1-2.3-2.3-2.3c-1.3,0-2.3,1-2.3,2.3c0,1.3,1,2.3,2.3,2.3
				C223.2,102.2,224.3,101.2,224.3,99.9"/>
			<g id="ring-bottom-left" transform="translate(34.000000, 112.000000)">
				<path id="Fill-38" class="st3" d="M35.9,73.6C17,73.6,1.6,58.2,1.6,39.3S17,5.1,35.9,5.1s34.3,15.4,34.3,34.3
					S54.8,73.6,35.9,73.6 M71.2,39.3C71.2,22.3,59,8,43,4.8V0h-1v4.6c-2-0.3-3.9-0.5-6-0.5s-4,0.2-6,0.5V0h-1v4.8
					C13,8,0.8,22.3,0.8,39.3S13,70.6,29,73.9V79h1v-4.9c2,0.3,3.9,0.5,6,0.5s4-0.2,6-0.5V79h1v-5.1C59,70.6,71.2,56.4,71.2,39.3"/>
				<polygon id="Fill-39" class="st3" points="29,37 20,37 20,38 30,38 30,31 29,31 				"/>
				<polygon id="Fill-40" class="st3" points="43,31 42,31 42,38 52,38 52,37 43,37 				"/>
				<polygon id="Fill-41" class="st3" points="42,48 43,48 43,42 52,42 52,41 42,41 				"/>
				<polygon id="Fill-42" class="st3" points="20,42 29,42 29,48 30,48 30,41 20,41 				"/>
				<path id="Fill-43" class="st4" d="M35.9,37c-1.3,0-2.3,1-2.3,2.3c0,1.3,1,2.3,2.3,2.3c1.3,0,2.3-1,2.3-2.3
					C38.2,38.1,37.2,37,35.9,37"/>
			</g>
			<g id="ring-top-left" transform="translate(34.000000, 9.000000)">
				<path id="Fill-44" class="st3" d="M35.9,73.8C17,73.8,1.6,58.4,1.6,39.5S17,5.3,35.9,5.3s34.3,15.4,34.3,34.3
					S54.8,73.8,35.9,73.8 M71.2,39.5C71.2,22.5,59,8.3,43,5V0h-1v4.8c-2-0.3-3.9-0.5-6-0.5s-4,0.2-6,0.5V0h-1v5
					C13,8.3,0.8,22.5,0.8,39.5S13,70.8,29,74.1V79h1v-4.7c2,0.3,3.9,0.5,6,0.5s4-0.2,6-0.5V79h1v-4.9C59,70.8,71.2,56.6,71.2,39.5"
					/>
				<polygon id="Fill-45" class="st3" points="29,37 20,37 20,38 30,38 30,31 29,31 				"/>
				<polygon id="Fill-46" class="st3" points="43,31 42,31 42,38 52,38 52,37 43,37 				"/>
				<polygon id="Fill-47" class="st3" points="42,48 43,48 43,42 52,42 52,41 42,41 				"/>
				<polygon id="Fill-48" class="st3" points="20,42 29,42 29,48 30,48 30,41 20,41 				"/>
				<path id="Fill-49" class="st4" d="M35.9,37.3c-1.3,0-2.3,1-2.3,2.3c0,1.3,1,2.3,2.3,2.3c1.3,0,2.3-1,2.3-2.3
					C38.2,38.3,37.2,37.3,35.9,37.3"/>
			</g>
			<path id="goal-lines-left" class="st4" d="M36,105.1c0,2.2-2.2,3.9-4.5,3.9H23V91h8.5c2.2,0,4.5,2.1,4.5,4.4V105.1z M31.5,90H23
				V6l-1,1v68.5L0.5,67.3l-0.4,0.9L22,76.6v47.3l-21.8,8.3l0.4,0.9l21.5-8.2V193l1,0.9V110h8.5c2.8,0,5.5-2.1,5.5-4.9v-9.7
				C37,92.6,34.3,90,31.5,90L31.5,90z"/>
			<path id="ice-boarder" class="st7" d="M442,155.3c0,24.1-19.5,43.7-43.7,43.7H44.7C20.5,199,1,179.5,1,155.3V44.7
				C1,20.5,20.5,1,44.7,1h353.7C422.5,1,442,20.5,442,44.7V155.3z M443,44.7C443,20,423,0,398.3,0H44.7C20,0,0,20,0,44.7v110.7
				C0,180,20,200,44.7,200h353.7c24.7,0,44.7-20,44.7-44.7V44.7z"/>
			<path id="goal-box-right" class="st8" d="M412.4,109c-2.2,0-4.4-1.9-4.4-4.2v-9.7c0-2.2,2.2-4.2,4.4-4.2h8.6v18H412.4z"/>
			<path id="goal-box-left" class="st8" d="M36,105.1c0,2.2-2.2,3.9-4.5,3.9H23V91h8.5c2.2,0,4.5,2.1,4.5,4.4V105.1z"/>
		</g>
	</g>
</g>
<g>
	<g>
		<path id="path-1_3_" class="st0" d="M21,91.5l1,0.6v1.1l-1.5-0.8v15.2l1.5-0.9v1.2l-1,0.6c-0.5,0.3-1.1,0.1-1.4-0.4
			c-0.1-0.2-0.1-0.3-0.1-0.5V92.4c0-0.6,0.4-1,1-1C20.7,91.4,20.8,91.5,21,91.5z"/>
	</g>
	<g id="NHL:-Rink_1_">
		<g id="Rink-Toolkit_1_" transform="translate(-149.000000, -424.000000)">
			
				<g id="Goal" transform="translate(153.500000, 434.000000) scale(-1, 1) translate(-153.500000, -434.000000) translate(149.000000, 424.000000)">
				<g id="netting" transform="translate(1.000000, 1.000000)">
					<polygon id="Fill-5" class="st9" points="-11.9,99.1 -8.9,99.1 -8.9,98.9 -11.9,98.9 					"/>
					<polygon id="Fill-6_1_" class="st9" points="-11.9,100.1 -8.9,100.1 -8.9,99.9 -11.9,99.9 					"/>
					<polygon id="Fill-7" class="st9" points="-11.9,101.1 -8.9,101.1 -8.9,100.9 -11.9,100.9 					"/>
					<polygon id="Fill-8_1_" class="st9" points="-11.9,102.1 -8.9,102.1 -8.9,101.9 -11.9,101.9 					"/>
					<polygon id="Fill-9" class="st9" points="-11.9,103.1 -8.9,103.1 -8.9,102.9 -11.9,102.9 					"/>
					<polygon id="Fill-10_1_" class="st9" points="-11.9,104.1 -8.9,104.1 -8.9,103.9 -11.9,103.9 					"/>
					<polygon id="Fill-11" class="st9" points="-11.9,105.1 -8.9,105.1 -8.9,104.9 -11.9,104.9 					"/>
					<polygon id="Fill-12_1_" class="st9" points="-11.9,106.1 -9.8,106.1 -9.8,105.9 -11.9,105.9 					"/>
					<polygon id="Fill-13" class="st9" points="-11.9,98.1 -8.9,98.1 -8.9,97.9 -11.9,97.9 					"/>
					<polygon id="Fill-14_1_" class="st9" points="-11.9,97.1 -8.9,97.1 -8.9,96.9 -11.9,96.9 					"/>
					<polygon id="Fill-15" class="st9" points="-11.9,96.1 -8.9,96.1 -8.9,95.9 -11.9,95.9 					"/>
					<polygon id="Fill-16_1_" class="st9" points="-11.9,95.1 -8.9,95.1 -8.9,94.9 -11.9,94.9 					"/>
					<polygon id="Fill-17" class="st9" points="-11.9,94.1 -8.9,94.1 -8.9,93.9 -11.9,93.9 					"/>
					<polygon id="Fill-18_1_" class="st9" points="-11.9,93.1 -8.9,93.1 -8.9,92.9 -11.9,92.9 					"/>
					<polygon id="Fill-19" class="st9" points="-11.9,92.1 -9.8,92.1 -9.8,91.9 -11.9,91.9 					"/>
					<polygon id="Fill-20_1_" class="st10" points="-8.9,99.1 -5.9,99.1 -5.9,98.9 -8.9,98.9 					"/>
					<polygon id="Fill-21" class="st10" points="-8.9,100.1 -5.9,100.1 -5.9,99.9 -8.9,99.9 					"/>
					<polygon id="Fill-22_1_" class="st10" points="-8.9,101.1 -5.9,101.1 -5.9,100.9 -8.9,100.9 					"/>
					<polygon id="Fill-23" class="st10" points="-8.9,102.1 -5.9,102.1 -5.9,101.9 -8.9,101.9 					"/>
					<polygon id="Fill-24_1_" class="st10" points="-8.9,103.1 -5.9,103.1 -5.9,102.9 -8.9,102.9 					"/>
					<polygon id="Fill-25" class="st10" points="-8.9,104.1 -5.9,104.1 -5.9,103.9 -8.9,103.9 					"/>
					<polygon id="Fill-26_1_" class="st10" points="-8.9,105.1 -5.9,105.1 -5.9,104.9 -8.9,104.9 					"/>
					<polygon id="Fill-27" class="st10" points="-9.9,106.1 -5.9,106.1 -5.9,105.9 -9.9,105.9 					"/>
					<polygon id="Fill-28_1_" class="st10" points="-6.9,107.1 -10.4,106.4 -10.4,106.2 -6.9,106.9 					"/>
					<polygon id="Fill-29" class="st10" points="-6.9,108.1 -11.2,106.8 -11.1,106.6 -6.8,107.9 					"/>
					<polygon id="Fill-30_1_" class="st10" points="-8.9,98.1 -5.9,98.1 -5.9,97.9 -8.9,97.9 					"/>
					<polygon id="Fill-31" class="st10" points="-8.9,97.1 -5.9,97.1 -5.9,96.9 -8.9,96.9 					"/>
					<polygon id="Fill-32_1_" class="st10" points="-8.9,96.1 -5.9,96.1 -5.9,95.9 -8.9,95.9 					"/>
					<polygon id="Fill-33" class="st10" points="-8.9,95.1 -5.9,95.1 -5.9,94.9 -8.9,94.9 					"/>
					<polygon id="Fill-34" class="st10" points="-8.9,94.1 -5.9,94.1 -5.9,93.9 -8.9,93.9 					"/>
					<polygon id="Fill-35" class="st10" points="-8.9,93.1 -5.9,93.1 -5.9,92.9 -8.9,92.9 					"/>
					<polygon id="Fill-36" class="st10" points="-9.9,92.1 -5.9,92.1 -5.9,91.9 -9.9,91.9 					"/>
					<polygon id="Fill-37" class="st10" points="-10.4,91.7 -10.4,91.5 -6.9,90.9 -6.9,91.1 					"/>
					<polygon id="Fill-38_1_" class="st10" points="-11.1,91.4 -11.2,91.2 -6.9,89.9 -6.8,90.1 					"/>
					<polygon id="Fill-39_1_" class="st10" points="-10,103.1 -11.6,101.1 -11.4,100.9 -9.8,102.9 					"/>
					<polygon id="Fill-40_1_" class="st10" points="-11.4,101.1 -11.6,100.9 -10,98.9 -9.8,99.1 					"/>
					<polygon id="Fill-41_1_" class="st10" points="-10,99.1 -11.6,97.1 -11.4,96.9 -9.8,98.9 					"/>
					<polygon id="Fill-42_1_" class="st10" points="-11.4,97.1 -11.6,96.9 -10,94.9 -9.8,95.1 					"/>
					<polygon id="Fill-43_1_" class="st9" points="-11,107.1 -12.2,105.6 -12,105.5 -10.8,106.9 					"/>
					<polygon id="Fill-44_1_" class="st9" points="-12,104.5 -12.1,104.4 -11,102.9 -10.8,103.1 					"/>
					<polygon id="Fill-45_1_" class="st9" points="-11,95.1 -12.2,93.6 -12,93.5 -10.8,94.9 					"/>
					<polygon id="Fill-46_1_" class="st9" points="-12,92.5 -12.1,92.4 -11,90.9 -10.8,91.1 					"/>
					<polygon id="Fill-47_1_" class="st9" points="-11,103.1 -12.6,101.1 -12.4,100.9 -10.8,102.9 					"/>
					<polygon id="Fill-48_1_" class="st9" points="-12.4,101.1 -12.6,100.9 -11,98.9 -10.8,99.1 					"/>
					<polygon id="Fill-49_1_" class="st9" points="-11,99.1 -12.6,97.1 -12.4,96.9 -10.8,98.9 					"/>
					<polygon id="Fill-50" class="st9" points="-12.4,97.1 -12.6,96.9 -11,94.9 -10.8,95.1 					"/>
					<polygon id="Fill-51" class="st9" points="-10.5,106.4 -11.6,105.1 -11.4,104.9 -10.3,106.3 					"/>
					<polygon id="Fill-52" class="st9" points="-11.4,105.1 -11.6,104.9 -10,102.9 -9.8,103.1 					"/>
					<polygon id="Fill-53" class="st9" points="-10,95.1 -11.6,93.1 -11.4,92.9 -9.8,94.9 					"/>
					<polygon id="Fill-54" class="st9" points="-11.4,93.1 -11.6,92.9 -10.5,91.6 -10.3,91.7 					"/>
					<polygon id="Fill-55" class="st9" points="-10,103.1 -11.6,101.1 -11.4,100.9 -9.8,102.9 					"/>
					<polygon id="Fill-56" class="st9" points="-11.4,101.1 -11.6,100.9 -10,98.9 -9.8,99.1 					"/>
					<polygon id="Fill-57" class="st9" points="-10,99.1 -11.6,97.1 -11.4,96.9 -9.8,98.9 					"/>
					<polygon id="Fill-58" class="st9" points="-11.4,97.1 -11.6,96.9 -10,94.9 -9.8,95.1 					"/>
					<polygon id="Fill-59" class="st9" points="-9.9,105.9 -10.6,105.1 -10.4,104.9 -9.8,105.7 					"/>
					<polygon id="Fill-60" class="st9" points="-10.4,105.1 -10.6,104.9 -9,102.9 -8.8,103.1 					"/>
					<polygon id="Fill-61" class="st9" points="-9,95.1 -10.6,93.1 -10.4,92.9 -8.8,94.9 					"/>
					<polygon id="Fill-62" class="st9" points="-10.4,93.1 -10.6,92.9 -9.9,92.1 -9.8,92.2 					"/>
					<polygon id="Fill-63" class="st9" points="-9,103.1 -10.6,101.1 -10.4,100.9 -8.8,102.9 					"/>
					<polygon id="Fill-64" class="st9" points="-10.4,101.1 -10.6,100.9 -9,98.9 -8.8,99.1 					"/>
					<polygon id="Fill-65" class="st9" points="-9,99.1 -10.6,97.1 -10.4,96.9 -8.8,98.9 					"/>
					<polygon id="Fill-66" class="st9" points="-10.4,97.1 -10.6,96.9 -9,94.9 -8.8,95.1 					"/>
					<polygon id="Fill-67" class="st9" points="-9.3,105.4 -9.6,105.1 -9.4,104.9 -9.2,105.3 					"/>
					<polygon id="Fill-68" class="st9" points="-9.4,105.1 -9.6,104.9 -8.8,103.9 -8.6,104.1 					"/>
					<polygon id="Fill-69" class="st9" points="-8.7,94.1 -9.6,93.1 -9.4,92.9 -8.6,94 					"/>
					<polygon id="Fill-70" class="st9" points="-9.4,93.1 -9.6,92.9 -9.2,92.5 -9.1,92.6 					"/>
					<polygon id="Fill-71" class="st9" points="-8.6,102.2 -9.6,101.1 -9.4,100.9 -8.5,102.1 					"/>
					<polygon id="Fill-72" class="st9" points="-9.4,101.1 -9.6,100.9 -8.6,99.8 -8.5,99.9 					"/>
					<polygon id="Fill-73" class="st9" points="-8.6,98.2 -9.6,97.1 -9.4,96.9 -8.5,98.1 					"/>
					<polygon id="Fill-74" class="st9" points="-9.4,97.1 -9.6,96.9 -8.6,95.7 -8.4,95.8 					"/>
					<path id="Fill-75" class="st10" d="M-12.2,90.5v1c1.7,0.2,3.1,1.7,3.1,3.6v7.8c0,1.8-1.3,3.3-3.1,3.6v1
						c2.3-0.3,4.1-2.2,4.1-4.5v-7.8C-8.1,92.7-9.9,90.8-12.2,90.5"/>
					<polygon id="Fill-76" class="st10" points="-6.3,105.1 -8,103.1 -7.8,102.9 -6.2,104.9 					"/>
					<polygon id="Fill-77" class="st10" points="-7.8,95.1 -8,94.9 -6.3,92.9 -6.2,93.1 					"/>
					<polygon id="Fill-78" class="st10" points="-7.8,103.1 -8,102.9 -6.3,100.9 -6.2,101.1 					"/>
					<polygon id="Fill-79" class="st10" points="-6.3,101.1 -8,99.1 -7.8,98.9 -6.2,100.9 					"/>
					<polygon id="Fill-80" class="st10" points="-7.8,99.1 -8,98.9 -6.3,96.9 -6.2,97.1 					"/>
					<polygon id="Fill-81" class="st10" points="-6.3,97.1 -8,95.1 -7.8,94.9 -6.2,96.9 					"/>
					<polygon id="Fill-82" class="st10" points="-7,106.1 -7.1,105.9 -6.3,104.9 -6.2,105.1 					"/>
					<polygon id="Fill-83" class="st10" points="-6.3,93.1 -7.1,92.1 -7,91.9 -6.2,92.9 					"/>
					<polygon id="Fill-84" class="st10" points="-8,92.1 -8.1,91.9 -7,90.5 -6.8,90.6 					"/>
					<polygon id="Fill-85" class="st10" points="-9,92.1 -9.1,91.9 -8.6,91.2 -8.4,91.3 					"/>
					<polygon id="Fill-86" class="st10" points="-7,92.1 -7.1,91.9 -6.4,91.1 -6.3,91.2 					"/>
					<polygon id="Fill-87" class="st10" points="-7.3,105.1 -9,103.1 -8.8,102.9 -7.2,104.9 					"/>
					<polygon id="Fill-88" class="st10" points="-8.3,105.1 -9,104.3 -8.8,104.2 -8.2,104.9 					"/>
					<polygon id="Fill-89" class="st10" points="-8.8,95.1 -9,94.9 -7.3,92.9 -7.2,93.1 					"/>
					<polygon id="Fill-90" class="st10" points="-8.8,103.1 -9,102.9 -7.3,100.9 -7.2,101.1 					"/>
					<polygon id="Fill-91" class="st10" points="-7.3,101.1 -9,99.1 -8.8,98.9 -7.2,100.9 					"/>
					<polygon id="Fill-92" class="st10" points="-8.8,99.1 -9,98.9 -7.3,96.9 -7.2,97.1 					"/>
					<polygon id="Fill-93" class="st10" points="-7.3,97.1 -9,95.1 -8.8,94.9 -7.2,96.9 					"/>
					<polygon id="Fill-94" class="st10" points="-8,106.1 -8.1,105.9 -7.3,104.9 -7.2,105.1 					"/>
					<polygon id="Fill-95" class="st10" points="-9,106.1 -9.1,105.9 -8.3,104.9 -8.2,105.1 					"/>
					<polygon id="Fill-96" class="st10" points="-7.3,93.1 -8.1,92.1 -8,91.9 -7.2,92.9 					"/>
					<polygon id="Fill-97" class="st10" points="-8.3,93.1 -9.1,92.1 -9,91.9 -8.2,92.9 					"/>
					<polygon id="Fill-98" class="st10" points="-5.3,105.1 -7,103.1 -6.8,102.9 -5.2,104.9 					"/>
					<polygon id="Fill-99" class="st10" points="-6.8,95.1 -7,94.9 -5.3,92.9 -5.2,93.1 					"/>
					<polygon id="Fill-100" class="st10" points="-6.8,103.1 -7,102.9 -5.3,100.9 -5.2,101.1 					"/>
					<polygon id="Fill-101" class="st10" points="-6.8,107.1 -7,106.9 -5.3,104.9 -5.2,105.1 					"/>
					<polygon id="Fill-102" class="st10" points="-5.3,101.1 -7,99.1 -6.8,98.9 -5.2,100.9 					"/>
					<polygon id="Fill-103" class="st10" points="-6.8,99.1 -7,98.9 -5.3,96.9 -5.2,97.1 					"/>
					<polygon id="Fill-104" class="st10" points="-5.3,97.1 -7,95.1 -6.8,94.9 -5.2,96.9 					"/>
					<polygon id="Fill-105" class="st10" points="-5.3,93.1 -7,91.1 -6.8,90.9 -5.2,92.9 					"/>
					<polygon id="Fill-106" class="st10" points="-7.4,107 -8.1,106.1 -8,105.9 -7.2,106.9 					"/>
					<polygon id="Fill-107" class="st10" points="-8.6,106.8 -9.1,106.1 -9,105.9 -8.4,106.6 					"/>
					<polygon id="Fill-108" class="st10" points="-6.4,106.9 -7.1,106.1 -7,105.9 -6.3,106.8 					"/>
					<polygon id="Fill-109" class="st10" points="-8.1,108 -8.2,107.9 -7.4,106.9 -7.2,107 					"/>
					<polygon id="Fill-110" class="st10" points="-9.2,107.8 -9.4,107.6 -8.6,106.6 -8.4,106.8 					"/>
					<polygon id="Fill-111" class="st10" points="-10.2,107.6 -10.4,107.4 -9.6,106.4 -9.4,106.5 					"/>
					<polygon id="Fill-112" class="st10" points="-7.6,91.4 -8.4,90.4 -8.2,90.2 -7.4,91.2 					"/>
					<polygon id="Fill-113" class="st10" points="-8.6,91.4 -9.4,90.4 -9.2,90.2 -8.4,91.2 					"/>
					<polygon id="Fill-114" class="st10" points="-9.6,91.6 -10.4,90.5 -10.2,90.4 -9.4,91.4 					"/>
					<polygon id="Fill-115" class="st10" points="-8.6,104.1 -8.8,103.9 -8,102.9 -7.8,103.1 					"/>
					<polygon id="Fill-116" class="st10" points="-8,95.1 -8.7,94.1 -8.6,94 -7.8,94.9 					"/>
					<polygon id="Fill-117" class="st10" points="-8,103.1 -8.6,102.2 -8.5,102.1 -7.8,102.9 					"/>
					<polygon id="Fill-118" class="st10" points="-8.4,95.8 -8.6,95.7 -8,94.9 -7.8,95.1 					"/>
				</g>
				<path id="bottom-bar" class="st7" d="M-7.8,109.6c-0.5,0-0.9-0.1-1.4-0.3l-3.8-1.5v-1.2l4.2,1.7c1.3,0.5,2.6-0.1,3.1-1.4
					c0.1-0.3,0.2-0.6,0.2-0.9V93.9c0-0.4-0.1-0.8-0.3-1.1c-0.4-0.8-1.8-1.7-3.1-1.2l-4.2,1.6v-1.1l3.9-1.5c0.4-0.2,0.9-0.2,1.3-0.2
					c2,0,3.6,1.6,3.6,3.5v12.2c0,0.5-0.1,0.9-0.3,1.3C-5,108.8-6.4,109.6-7.8,109.6z"/>
				<polygon id="middle-bar" class="st7" points="-8,100.5 -5,100.5 -5,99.5 -8,99.5 				"/>
				<g id="top-rail" transform="translate(1.000000, 1.000000)">
					<path id="Fill-119" class="st9" d="M-12.1,106.5c1.8-0.3,3.1-1.8,3.1-3.6v-7.8c0-1.8-1.3-3.3-3.1-3.6v-0.8
						c2.2,0.3,3.9,2.2,3.9,4.4v7.8c0,2.2-1.7,4.1-3.9,4.4V106.5z"/>
					<path id="Fill-120" class="st7" d="M-12.2,90.5v1c1.7,0.2,3.1,1.7,3.1,3.6v7.8c0,1.8-1.3,3.3-3.1,3.6v1
						c2.3-0.3,4.1-2.2,4.1-4.5v-7.8C-8.1,92.7-9.9,90.8-12.2,90.5 M-12,90.8c2.1,0.3,3.7,2.2,3.7,4.3v7.8c0,2.2-1.6,4-3.7,4.3v-0.6
						c1.8-0.3,3.1-1.9,3.1-3.7v-7.8c0-1.8-1.3-3.4-3.1-3.7V90.8"/>
				</g>
				<g id="red-bar">
					<path id="path-1_2_" class="st11" d="M-12,91.5l-1,0.6v1.1l1.5-0.8v15.2l-1.5-0.9v1.2l1,0.6c0.5,0.3,1.1,0.1,1.4-0.4
						c0.1-0.2,0.1-0.3,0.1-0.5V92.4c0-0.6-0.4-1-1-1C-11.7,91.4-11.8,91.5-12,91.5z"/>
				</g>
			</g>
		</g>
	</g>
</g>
<g>
	<g>
		<path id="path-1_5_" class="st0" d="M423.5,91.4c0.6,0,1,0.4,1,1v15.2c0,0.2,0,0.3-0.1,0.5c-0.3,0.5-0.9,0.6-1.4,0.4l-1-0.6v-1.2
			l1.5,0.9V92.4l-1.5,0.8v-1.1l1-0.6C423.2,91.5,423.3,91.4,423.5,91.4z"/>
	</g>
	<g id="NHL:-Rink_2_">
		<g id="Rink-Toolkit_2_" transform="translate(-149.000000, -424.000000)">
			
				<g id="Goal_1_" transform="translate(153.500000, 434.000000) scale(-1, 1) translate(-153.500000, -434.000000) translate(149.000000, 424.000000)">
				<g id="netting_1_" transform="translate(1.000000, 1.000000)">
					<polygon id="Fill-5_1_" class="st9" points="-416.1,98.9 -419.1,98.9 -419.1,99.1 -416.1,99.1 					"/>
					<polygon id="Fill-6_3_" class="st9" points="-416.1,99.9 -419.1,99.9 -419.1,100.1 -416.1,100.1 					"/>
					<polygon id="Fill-7_1_" class="st9" points="-416.1,100.9 -419.1,100.9 -419.1,101.1 -416.1,101.1 					"/>
					<polygon id="Fill-8_3_" class="st9" points="-416.1,101.9 -419.1,101.9 -419.1,102.1 -416.1,102.1 					"/>
					<polygon id="Fill-9_1_" class="st9" points="-416.1,102.9 -419.1,102.9 -419.1,103.1 -416.1,103.1 					"/>
					<polygon id="Fill-10_3_" class="st9" points="-416.1,103.9 -419.1,103.9 -419.1,104.1 -416.1,104.1 					"/>
					<polygon id="Fill-11_1_" class="st9" points="-416.1,104.9 -419.1,104.9 -419.1,105.1 -416.1,105.1 					"/>
					<polygon id="Fill-12_3_" class="st9" points="-416.1,105.9 -418.2,105.9 -418.2,106.1 -416.1,106.1 					"/>
					<polygon id="Fill-13_1_" class="st9" points="-416.1,97.9 -419.1,97.9 -419.1,98.1 -416.1,98.1 					"/>
					<polygon id="Fill-14_3_" class="st9" points="-416.1,96.9 -419.1,96.9 -419.1,97.1 -416.1,97.1 					"/>
					<polygon id="Fill-15_1_" class="st9" points="-416.1,95.9 -419.1,95.9 -419.1,96.1 -416.1,96.1 					"/>
					<polygon id="Fill-16_3_" class="st9" points="-416.1,94.9 -419.1,94.9 -419.1,95.1 -416.1,95.1 					"/>
					<polygon id="Fill-17_1_" class="st9" points="-416.1,93.9 -419.1,93.9 -419.1,94.1 -416.1,94.1 					"/>
					<polygon id="Fill-18_3_" class="st9" points="-416.1,92.9 -419.1,92.9 -419.1,93.1 -416.1,93.1 					"/>
					<polygon id="Fill-19_1_" class="st9" points="-416.1,91.9 -418.2,91.9 -418.2,92.1 -416.1,92.1 					"/>
					<polygon id="Fill-20_3_" class="st10" points="-419.1,98.9 -422.1,98.9 -422.1,99.1 -419.1,99.1 					"/>
					<polygon id="Fill-21_1_" class="st10" points="-419.1,99.9 -422.1,99.9 -422.1,100.1 -419.1,100.1 					"/>
					<polygon id="Fill-22_3_" class="st10" points="-419.1,100.9 -422.1,100.9 -422.1,101.1 -419.1,101.1 					"/>
					<polygon id="Fill-23_1_" class="st10" points="-419.1,101.9 -422.1,101.9 -422.1,102.1 -419.1,102.1 					"/>
					<polygon id="Fill-24_3_" class="st10" points="-419.1,102.9 -422.1,102.9 -422.1,103.1 -419.1,103.1 					"/>
					<polygon id="Fill-25_1_" class="st10" points="-419.1,103.9 -422.1,103.9 -422.1,104.1 -419.1,104.1 					"/>
					<polygon id="Fill-26_3_" class="st10" points="-419.1,104.9 -422.1,104.9 -422.1,105.1 -419.1,105.1 					"/>
					<polygon id="Fill-27_1_" class="st10" points="-418.1,105.9 -422.1,105.9 -422.1,106.1 -418.1,106.1 					"/>
					<polygon id="Fill-28_3_" class="st10" points="-421.1,106.9 -417.6,106.2 -417.6,106.4 -421.1,107.1 					"/>
					<polygon id="Fill-29_1_" class="st10" points="-421.1,107.9 -416.9,106.6 -416.8,106.8 -421.1,108.1 					"/>
					<polygon id="Fill-30_3_" class="st10" points="-419.1,97.9 -422.1,97.9 -422.1,98.1 -419.1,98.1 					"/>
					<polygon id="Fill-31_1_" class="st10" points="-419.1,96.9 -422.1,96.9 -422.1,97.1 -419.1,97.1 					"/>
					<polygon id="Fill-32_3_" class="st10" points="-419.1,95.9 -422.1,95.9 -422.1,96.1 -419.1,96.1 					"/>
					<polygon id="Fill-33_1_" class="st10" points="-419.1,94.9 -422.1,94.9 -422.1,95.1 -419.1,95.1 					"/>
					<polygon id="Fill-34_1_" class="st10" points="-419.1,93.9 -422.1,93.9 -422.1,94.1 -419.1,94.1 					"/>
					<polygon id="Fill-35_1_" class="st10" points="-419.1,92.9 -422.1,92.9 -422.1,93.1 -419.1,93.1 					"/>
					<polygon id="Fill-36_1_" class="st10" points="-418.1,91.9 -422.1,91.9 -422.1,92.1 -418.1,92.1 					"/>
					<polygon id="Fill-37_1_" class="st10" points="-421.1,91.1 -421.1,90.9 -417.6,91.5 -417.6,91.7 					"/>
					<polygon id="Fill-38_3_" class="st10" points="-421.1,90.1 -421.1,89.9 -416.8,91.2 -416.9,91.4 					"/>
					<polygon id="Fill-39_3_" class="st10" points="-418.2,102.9 -416.5,100.9 -416.4,101.1 -418,103.1 					"/>
					<polygon id="Fill-40_3_" class="st10" points="-418.2,99.1 -418,98.9 -416.4,100.9 -416.5,101.1 					"/>
					<polygon id="Fill-41_3_" class="st10" points="-418.2,98.9 -416.5,96.9 -416.4,97.1 -418,99.1 					"/>
					<polygon id="Fill-42_3_" class="st10" points="-418.2,95.1 -418,94.9 -416.4,96.9 -416.5,97.1 					"/>
					<polygon id="Fill-43_3_" class="st9" points="-417.2,106.9 -416,105.5 -415.8,105.6 -417,107.1 					"/>
					<polygon id="Fill-44_3_" class="st9" points="-417.2,103.1 -417,102.9 -415.8,104.4 -416,104.5 					"/>
					<polygon id="Fill-45_3_" class="st9" points="-417.2,94.9 -416,93.5 -415.8,93.6 -417,95.1 					"/>
					<polygon id="Fill-46_3_" class="st9" points="-417.2,91.1 -417,90.9 -415.8,92.4 -416,92.5 					"/>
					<polygon id="Fill-47_3_" class="st9" points="-417.2,102.9 -415.5,100.9 -415.4,101.1 -417,103.1 					"/>
					<polygon id="Fill-48_3_" class="st9" points="-417.2,99.1 -417,98.9 -415.4,100.9 -415.5,101.1 					"/>
					<polygon id="Fill-49_3_" class="st9" points="-417.2,98.9 -415.5,96.9 -415.4,97.1 -417,99.1 					"/>
					<polygon id="Fill-50_1_" class="st9" points="-417.2,95.1 -417,94.9 -415.4,96.9 -415.5,97.1 					"/>
					<polygon id="Fill-51_1_" class="st9" points="-417.6,106.3 -416.5,104.9 -416.4,105.1 -417.5,106.4 					"/>
					<polygon id="Fill-52_1_" class="st9" points="-418.2,103.1 -418,102.9 -416.4,104.9 -416.5,105.1 					"/>
					<polygon id="Fill-53_1_" class="st9" points="-418.2,94.9 -416.5,92.9 -416.4,93.1 -418,95.1 					"/>
					<polygon id="Fill-54_1_" class="st9" points="-417.6,91.7 -417.5,91.6 -416.4,92.9 -416.5,93.1 					"/>
					<polygon id="Fill-55_1_" class="st9" points="-418.2,102.9 -416.5,100.9 -416.4,101.1 -418,103.1 					"/>
					<polygon id="Fill-56_1_" class="st9" points="-418.2,99.1 -418,98.9 -416.4,100.9 -416.5,101.1 					"/>
					<polygon id="Fill-57_1_" class="st9" points="-418.2,98.9 -416.5,96.9 -416.4,97.1 -418,99.1 					"/>
					<polygon id="Fill-58_1_" class="st9" points="-418.2,95.1 -418,94.9 -416.4,96.9 -416.5,97.1 					"/>
					<polygon id="Fill-59_1_" class="st9" points="-418.2,105.7 -417.5,104.9 -417.4,105.1 -418.1,105.9 					"/>
					<polygon id="Fill-60_1_" class="st9" points="-419.2,103.1 -419,102.9 -417.4,104.9 -417.5,105.1 					"/>
					<polygon id="Fill-61_1_" class="st9" points="-419.2,94.9 -417.5,92.9 -417.4,93.1 -419,95.1 					"/>
					<polygon id="Fill-62_1_" class="st9" points="-418.2,92.2 -418.1,92.1 -417.4,92.9 -417.5,93.1 					"/>
					<polygon id="Fill-63_1_" class="st9" points="-419.2,102.9 -417.5,100.9 -417.4,101.1 -419,103.1 					"/>
					<polygon id="Fill-64_1_" class="st9" points="-419.2,99.1 -419,98.9 -417.4,100.9 -417.5,101.1 					"/>
					<polygon id="Fill-65_1_" class="st9" points="-419.2,98.9 -417.5,96.9 -417.4,97.1 -419,99.1 					"/>
					<polygon id="Fill-66_1_" class="st9" points="-419.2,95.1 -419,94.9 -417.4,96.9 -417.5,97.1 					"/>
					<polygon id="Fill-67_1_" class="st9" points="-418.8,105.3 -418.5,104.9 -418.4,105.1 -418.7,105.4 					"/>
					<polygon id="Fill-68_1_" class="st9" points="-419.4,104.1 -419.2,103.9 -418.4,104.9 -418.5,105.1 					"/>
					<polygon id="Fill-69_1_" class="st9" points="-419.4,94 -418.5,92.9 -418.4,93.1 -419.3,94.1 					"/>
					<polygon id="Fill-70_1_" class="st9" points="-418.9,92.6 -418.8,92.5 -418.4,92.9 -418.5,93.1 					"/>
					<polygon id="Fill-71_1_" class="st9" points="-419.5,102.1 -418.5,100.9 -418.4,101.1 -419.3,102.2 					"/>
					<polygon id="Fill-72_1_" class="st9" points="-419.5,99.9 -419.3,99.8 -418.4,100.9 -418.5,101.1 					"/>
					<polygon id="Fill-73_1_" class="st9" points="-419.5,98.1 -418.5,96.9 -418.4,97.1 -419.3,98.2 					"/>
					<polygon id="Fill-74_1_" class="st9" points="-419.6,95.8 -419.4,95.7 -418.4,96.9 -418.5,97.1 					"/>
					<path id="Fill-75_1_" class="st10" d="M-415.8,90.5c-2.3,0.3-4.1,2.2-4.1,4.5v7.8c0,2.4,1.8,4.3,4.1,4.5v-1
						c-1.7-0.2-3.1-1.7-3.1-3.6v-7.8c0-1.8,1.3-3.3,3.1-3.6V90.5"/>
					<polygon id="Fill-76_1_" class="st10" points="-421.8,104.9 -420.2,102.9 -420,103.1 -421.7,105.1 					"/>
					<polygon id="Fill-77_1_" class="st10" points="-421.8,93.1 -421.7,92.9 -420,94.9 -420.2,95.1 					"/>
					<polygon id="Fill-78_1_" class="st10" points="-421.8,101.1 -421.7,100.9 -420,102.9 -420.2,103.1 					"/>
					<polygon id="Fill-79_1_" class="st10" points="-421.8,100.9 -420.2,98.9 -420,99.1 -421.7,101.1 					"/>
					<polygon id="Fill-80_1_" class="st10" points="-421.8,97.1 -421.7,96.9 -420,98.9 -420.2,99.1 					"/>
					<polygon id="Fill-81_1_" class="st10" points="-421.8,96.9 -420.2,94.9 -420,95.1 -421.7,97.1 					"/>
					<polygon id="Fill-82_1_" class="st10" points="-421.8,105.1 -421.7,104.9 -420.8,105.9 -421,106.1 					"/>
					<polygon id="Fill-83_1_" class="st10" points="-421.8,92.9 -421,91.9 -420.8,92.1 -421.7,93.1 					"/>
					<polygon id="Fill-84_1_" class="st10" points="-421.2,90.6 -421,90.5 -419.8,91.9 -420,92.1 					"/>
					<polygon id="Fill-85_1_" class="st10" points="-419.6,91.3 -419.4,91.2 -418.8,91.9 -419,92.1 					"/>
					<polygon id="Fill-86_1_" class="st10" points="-421.7,91.2 -421.5,91.1 -420.8,91.9 -421,92.1 					"/>
					<polygon id="Fill-87_1_" class="st10" points="-420.8,104.9 -419.2,102.9 -419,103.1 -420.7,105.1 					"/>
					<polygon id="Fill-88_1_" class="st10" points="-419.8,104.9 -419.2,104.2 -419,104.3 -419.7,105.1 					"/>
					<polygon id="Fill-89_1_" class="st10" points="-420.8,93.1 -420.7,92.9 -419,94.9 -419.2,95.1 					"/>
					<polygon id="Fill-90_1_" class="st10" points="-420.8,101.1 -420.7,100.9 -419,102.9 -419.2,103.1 					"/>
					<polygon id="Fill-91_1_" class="st10" points="-420.8,100.9 -419.2,98.9 -419,99.1 -420.7,101.1 					"/>
					<polygon id="Fill-92_1_" class="st10" points="-420.8,97.1 -420.7,96.9 -419,98.9 -419.2,99.1 					"/>
					<polygon id="Fill-93_1_" class="st10" points="-420.8,96.9 -419.2,94.9 -419,95.1 -420.7,97.1 					"/>
					<polygon id="Fill-94_1_" class="st10" points="-420.8,105.1 -420.7,104.9 -419.8,105.9 -420,106.1 					"/>
					<polygon id="Fill-95_1_" class="st10" points="-419.8,105.1 -419.7,104.9 -418.8,105.9 -419,106.1 					"/>
					<polygon id="Fill-96_1_" class="st10" points="-420.8,92.9 -420,91.9 -419.8,92.1 -420.7,93.1 					"/>
					<polygon id="Fill-97_1_" class="st10" points="-419.8,92.9 -419,91.9 -418.8,92.1 -419.7,93.1 					"/>
					<polygon id="Fill-98_1_" class="st10" points="-422.8,104.9 -421.2,102.9 -421,103.1 -422.7,105.1 					"/>
					<polygon id="Fill-99_1_" class="st10" points="-422.8,93.1 -422.7,92.9 -421,94.9 -421.2,95.1 					"/>
					<polygon id="Fill-100_1_" class="st10" points="-422.8,101.1 -422.7,100.9 -421,102.9 -421.2,103.1 					"/>
					<polygon id="Fill-101_1_" class="st10" points="-422.8,105.1 -422.7,104.9 -421,106.9 -421.2,107.1 					"/>
					<polygon id="Fill-102_1_" class="st10" points="-422.8,100.9 -421.2,98.9 -421,99.1 -422.7,101.1 					"/>
					<polygon id="Fill-103_1_" class="st10" points="-422.8,97.1 -422.7,96.9 -421,98.9 -421.2,99.1 					"/>
					<polygon id="Fill-104_1_" class="st10" points="-422.8,96.9 -421.2,94.9 -421,95.1 -422.7,97.1 					"/>
					<polygon id="Fill-105_1_" class="st10" points="-422.8,92.9 -421.2,90.9 -421,91.1 -422.7,93.1 					"/>
					<polygon id="Fill-106_1_" class="st10" points="-420.8,106.9 -420,105.9 -419.8,106.1 -420.6,107 					"/>
					<polygon id="Fill-107_1_" class="st10" points="-419.6,106.6 -419,105.9 -418.8,106.1 -419.4,106.8 					"/>
					<polygon id="Fill-108_1_" class="st10" points="-421.7,106.8 -421,105.9 -420.8,106.1 -421.5,106.9 					"/>
					<polygon id="Fill-109_1_" class="st10" points="-420.8,107 -420.6,106.9 -419.8,107.9 -419.9,108 					"/>
					<polygon id="Fill-110_1_" class="st10" points="-419.6,106.8 -419.4,106.6 -418.6,107.6 -418.7,107.8 					"/>
					<polygon id="Fill-111_1_" class="st10" points="-418.6,106.5 -418.4,106.4 -417.6,107.4 -417.7,107.6 					"/>
					<polygon id="Fill-112_1_" class="st10" points="-420.6,91.2 -419.7,90.2 -419.6,90.4 -420.4,91.4 					"/>
					<polygon id="Fill-113_1_" class="st10" points="-419.6,91.2 -418.7,90.2 -418.6,90.4 -419.4,91.4 					"/>
					<polygon id="Fill-114_1_" class="st10" points="-418.6,91.4 -417.7,90.4 -417.6,90.5 -418.4,91.6 					"/>
					<polygon id="Fill-115_1_" class="st10" points="-420.2,103.1 -420,102.9 -419.2,103.9 -419.4,104.1 					"/>
					<polygon id="Fill-116_1_" class="st10" points="-420.2,94.9 -419.4,94 -419.3,94.1 -420,95.1 					"/>
					<polygon id="Fill-117_1_" class="st10" points="-420.2,102.9 -419.5,102.1 -419.3,102.2 -420,103.1 					"/>
					<polygon id="Fill-118_1_" class="st10" points="-420.2,95.1 -420,94.9 -419.4,95.7 -419.6,95.8 					"/>
				</g>
				<path id="bottom-bar_1_" class="st7" d="M-421.6,107.5c-0.2-0.4-0.3-0.9-0.3-1.3V93.9c0-1.9,1.6-3.5,3.6-3.5
					c0.5,0,0.9,0.1,1.3,0.2l3.9,1.5v1.1l-4.2-1.6c-1.3-0.5-2.6,0.4-3.1,1.2c-0.2,0.3-0.3,0.7-0.3,1.1v12.2c0,0.3,0.1,0.6,0.2,0.9
					c0.6,1.3,1.8,1.9,3.1,1.4l4.2-1.7v1.2l-3.8,1.5c-0.4,0.2-0.9,0.3-1.4,0.3C-419.6,109.6-421,108.8-421.6,107.5z"/>
				<polygon id="middle-bar_1_" class="st7" points="-418,99.5 -421,99.5 -421,100.5 -418,100.5 				"/>
				<g id="top-rail_1_" transform="translate(1.000000, 1.000000)">
					<path id="Fill-119_1_" class="st9" d="M-415.9,107.3c-2.2-0.3-3.9-2.2-3.9-4.4v-7.8c0-2.2,1.7-4.1,3.9-4.4v0.8
						c-1.8,0.3-3.1,1.8-3.1,3.6v7.8c0,1.8,1.3,3.3,3.1,3.6V107.3z"/>
					<path id="Fill-120_1_" class="st7" d="M-415.8,90.5c-2.3,0.3-4.1,2.2-4.1,4.5v7.8c0,2.4,1.8,4.3,4.1,4.5v-1
						c-1.7-0.2-3.1-1.7-3.1-3.6v-7.8c0-1.8,1.3-3.3,3.1-3.6V90.5 M-416,90.8v0.6c-1.8,0.3-3.1,1.9-3.1,3.7v7.8
						c0,1.8,1.3,3.4,3.1,3.7v0.6c-2.1-0.3-3.7-2.2-3.7-4.3v-7.8C-419.7,92.9-418.1,91.1-416,90.8"/>
				</g>
				<g id="red-bar_1_">
					<path id="path-1_4_" class="st11" d="M-414.5,91.4c-0.6,0-1,0.4-1,1v15.2c0,0.2,0,0.3,0.1,0.5c0.3,0.5,0.9,0.6,1.4,0.4l1-0.6
						v-1.2l-1.5,0.9V92.4l1.5,0.8v-1.1l-1-0.6C-414.2,91.5-414.3,91.4-414.5,91.4z"/>
				</g>
			</g>
		</g>
	</g>
</g>
</svg>
